<?xml version="1.0" encoding="UTF-8"?>
<svg xmlns="http://www.w3.org/2000/svg" viewBox="0 0 64 64" width="64" height="64">
  <defs>
    <linearGradient id="g" x1="0" x2="1" y1="0" y2="1">
      <stop offset="0%" stop-color="#2563eb"/>
      <stop offset="100%" stop-color="#06b6d4"/>
    </linearGradient>
    <filter id="shadow" x="-50%" y="-50%" width="200%" height="200%">
      <feDropShadow dx="0" dy="1" stdDeviation="1.2" flood-color="#000" flood-opacity="0.28"/>
    </filter>
  </defs>
  <!-- Rounded chat bubble background -->
  <path d="M8 16a12 12 0 0 1 12-12h24a12 12 0 0 1 12 12v18a12 12 0 0 1-12 12H26l-8.4 6.3c-1.1.8-2.6-.2-2.3-1.6l1.5-6.7H20A12 12 0 0 1 8 34V16z" fill="url(#g)" filter="url(#shadow)"/>
  <!-- Robot face -->
  <g transform="translate(16,18)">
    <rect x="6" y="0" width="20" height="14" rx="7" ry="7" fill="#ffffff" opacity="0.9"/>
    <circle cx="12" cy="7" r="2.2" fill="#111827"/>
    <circle cx="20" cy="7" r="2.2" fill="#111827"/>
    <path d="M12 12c2.6 2.4 7.4 2.4 10 0" fill="none" stroke="#111827" stroke-width="2" stroke-linecap="round"/>
    <rect x="13.8" y="-4" width="4.4" height="4.4" rx="2.2" fill="#ffffff" opacity="0.9"/>
    <rect x="15" y="-7.5" width="2" height="3.5" rx="1" fill="#ffffff" opacity="0.9"/>
  </g>
</svg>
